<svg xmlns:xlink="http://www.w3.org/1999/xlink" xmlns="http://www.w3.org/2000/svg" aria-hidden="true" class="deville" width="435.6"  height="100" ><defs><symbol id="deville" viewBox="0 0 435.6 100" preserveAspectRatio="xMidYMid meet">
            <title>deville</title>
            <path d="M107.2,59.3V18.9h32v6.7h-24.9v9.1h14.3v6.7h-14.1v10.1h24.9v7.8H107.2z M204.2,62.7L178.4,5.5h11.8l18,41.5l17.1-41.5h10.2l-24,57.2H204.2z M244.3,18.9h7.2v40.4h-6.9L244.3,18.9z M267.3,59.3V18.9h7.2v32.6h23.2v7.8H267.3z M308.5,59.3V18.9h7.1v32.6h23.2v7.8H308.5z M354.5,69.9V2.7h52.8V14h-40.7v15.1h23.6v11.7h-23.6v16.8h41.1v12.6L354.5,69.9z M82.6,11.3c-5-5.8-12.4-8.8-21.9-8.8H27.6v67.2h30.3c5,0,9.4-0.4,12.6-1.2c3.4-0.8,6.3-2.2,8.4-4c3.7-2.7,6.4-6.7,8.4-11.8c2.1-5,3-10.6,3-16.8C90.3,25.3,87.8,17.4,82.6,11.3L82.6,11.3z M72.5,52.2c-3.4,3.4-9.1,5-17.5,5H39.4V14.5h21.9c5.5,0,9.7,1.7,12.6,5.4c2.9,3.4,4.4,8.8,4.4,15.6c0,7.6-2.1,13.1-5.4,16.5L72.5,52.2z M0,90.9h435.6v5H0V90.9z"></path>
        </symbol></defs><title>De Ville</title><use xlink:href="#deville" fill="#666666"></use></svg>