<svg xmlns:xlink="http://www.w3.org/1999/xlink" xmlns="http://www.w3.org/2000/svg" aria-hidden="true" class="seamaster" width="564"  height="100" ><defs><symbol id="seamaster" viewBox="0 0 564 100" preserveAspectRatio="xMidYMid meet">
            <title>seamaster</title>
            <path d="M459.6,62.3l29.6-17c1.4-1,3.3-1.9,4.5-2.9l0.4-0.5c0.5-1.4-1.3-3.5-2.5-4.2c-15.8-9.2-38.2,8.7-31.8,24.5L459.6,62.3z M200.4,51.7c1.9-5.8,2.1-11.3-3.9-14.7c-12.7-7.3-20.5,14.9-23.9,20.8c-6.9,11.8,11.1,22.4,17.9,10.4l9.6-16.4L200.4,51.7z M322.1,57.8c-6.7,11.8,11.4,22.4,18.3,10.4l9.6-16.4c1.9-5.8,2.1-11.4-3.9-14.8c-12.7-7.2-20.5,14.9-23.9,20.9L322.1,57.8z M118.3,62.3l29.6-17c1.4-1,3.3-1.9,4.5-2.9l0.3-0.5c0.5-1.4-1.3-3.5-2.5-4.2C134.3,28.5,111.9,46.4,118.3,62.3L118.3,62.3z M542.1,43.6l-12.2-8.7l-13.5,22.6c-6.6,14-24.7,20.7-39.1,21.7c-12.3,0.4-20.4-6.3-23.4-14.9l-25.4,14.5c-10.9,4.1-15.4-8-11.1-15.8l2.1-3.5L410,65c-3.9,8.9-12.7,14.9-22.9,14.9c-7.2,0-13.7-2.9-18.3-7.9l4.6-4.8c3.4,3.7,8.2,6,13.5,6c10.3,0,18.5-8.3,18.5-18.3c0-7.4-3.9-14.1-9.3-17.6l-40.5,41.2c-2.9,2.2-6.9,2.1-9.6,0c-1.3-1-1.9-1.9-2.7-2.9c-9.6,9.9-26,3.4-29.1-8.3l-16.1,10c-3.3,2.2-9,3.9-12.8,1.7c-7.4-4.1-3.9-14.6-0.6-20.2l11.1-18.9c2.9-8.2-6-3.9-9-1.7L270,47.8l-17.8,31h-7.7l22.4-38.9c2.9-8.4-6.1-3.7-9-1.7l-17.3,10l-17.7,30.6h-7.7l4.3-7.5L208.9,78c-3.5,2.6-9.6,2.5-12.5,0.5c-1-1-1.9-1.9-2.1-3.3c-9.6,10.1-26.7,2.9-29.2-9.1l-15.2,8.7c-16.9,9.8-31.8,2.4-37-9.4L95.3,75.6l-3.4-5.8l19-10.9c-1.3-9.2,2.7-19.3,14.5-26.2c9.4-5.4,20.4-5.4,28.5-0.6l1,0.7c6.5,5.2,6.4,11.9-0.2,16.4l-3.2,1.9l-29.2,16.7c5.8,5.3,15.4,6.5,24.3,1.3l19.1-11c0.4-1.3,1-2.5,1.7-3.9c6.3-10.8,15.4-33.5,33.2-23.1c3.9,2.2,6.3,4.8,7.5,7.9l5.2-9.1h7.7l-20,35.2c-0.8,2.5-2.6,6,0,7.7c1.4,1,3.4,0,3.7-0.2l22.2-13.5L243.6,30h7.7l-3.9,6.6l7.1-4c4.4-2.9,12.5-6.6,17.1-1.6c1.9,1.9,2.6,4.4,2.6,6.7l9.2-5.2c4.4-2.9,12.5-6.6,17.1-1.6c3.3,3.5,2.9,7.7,1.5,11.8c-0.6,1-11.6,17.8-13.7,25c-1,3.5-0.2,4.8,0.6,5.2c1.9,0.6,4.3-0.3,6-1.4L314.6,59c0.4-1.5,1-3.1,1.9-4.8c6.3-10.6,15.4-33.4,33.2-23.1c3.9,2.3,6.3,5,7.5,8l5.3-8.9h7.7c0,0-20.5,36.6-20.8,37.6l-0.3,1.3c0,0.8,0,1.5,0.8,2.1c2.3,2.1,3.4,0,5.4-1.9L405.9,18l4.8,4.8l-9.6,9.6c6.7,4.8,11.4,13.3,11.4,22.4v1.3l14.1-8.2l13.1-23.1h-15.4l3.5-6.7h15.8l11-18.9h7.7l-10.9,19H468l-3.4,6.7h-17.2l-24.1,41.4l-0.2,0.6c-1,1.9-1.3,7.2,2.5,5.8l27-15.4c-0.3-8.9,4.3-18.5,14.5-24.4c9.4-5.4,20.4-5.4,28.5-0.6l1,0.8c6.5,5.3,6.4,12-0.2,16.4c-1,0.6-1.9,1.3-3.3,1.9L463.7,68c3.4,3.1,8.1,4.8,13.3,4.8c11.6-1,27.9-6.3,33.3-18.1l22.4-37.6l5.5,3.9l-5.1,8.7l13.3,9.2c2.7,1.5,3.1,4.8,1.7,7.7l-11.4,19.7c-1.2,2.1-1.3,8.3,2.5,6.2L561,59.8l4.8,4.8c-18.8,11-23.3,13.5-23.3,13.5c-9.3,5.5-16.8-5.8-11.8-15L542.1,43.6z M101,36.6l0.7-7.3c1.3-10.4-13-19.1-34.5-19.1C30,10.2,17.4,40,56,47.9c14.9,2.9,29.9,9.8,28.9,25c-1,17.8-20,26-41.1,26C23,99,3.5,88.9,3.2,73.5c-0.4-1.7-0.3-5.1,2.6-11.6h7.4c-1.3,2.7-3.7,7.7-3.5,10.2v-0.6l0.2,1.3c0,9.4,13.3,19.5,34.1,19.5c37.3,0,50.1-30.2,10.9-37.9C9,45.2,21.2,3.4,67.5,3.4c20.2,0,43.4,8.3,41.1,26.5l-0.6,6.7h-6.7H101z"></path>
        </symbol></defs><title>Seamaster</title><use xlink:href="#seamaster" fill="#666666"></use></svg>